<svg width="120" height="30"  viewBox="0 0 120 30" xmlns="http://www.w3.org/2000/svg">
<g clip-path="url(#clip0_577_86993)">
<path d="M32.9974 28.6382C32.7433 28.2813 32.5958 27.8179 32.5548 27.2477V18.8474C32.3909 17.8671 32.0058 17.0959 31.3952 16.5258C30.7847 15.9557 30.0226 15.6275 29.1047 15.5455C28.6786 15.4635 28.2238 15.4717 27.7443 15.5619C27.2649 15.6521 26.7978 15.8326 26.343 16.0951C25.8841 16.3617 25.4579 16.7022 25.0605 17.1165C24.663 17.5348 24.3516 18.0188 24.1303 18.5685V15.6357C23.3764 16.3289 22.6388 16.8211 21.9177 17.1165C21.1965 17.4118 20.4794 17.6702 19.7665 17.8958C19.4428 17.9163 19.3117 17.9778 19.3854 18.0804C19.4551 18.1829 19.6108 18.2896 19.8443 18.4003C20.0779 18.511 20.3278 18.6136 20.5901 18.7079C20.8564 18.7982 21.0285 18.8474 21.1105 18.8474V27.2477C20.8851 27.8384 20.5901 28.3388 20.2254 28.7448C19.8607 29.1509 19.4837 29.4667 19.0945 29.6923H25.9291C24.872 29.0607 24.2615 28.2362 24.0976 27.219V19.8892H24.1262V19.5529C24.1877 19.0648 24.3762 18.6423 24.6917 18.2854C25.0072 17.9286 25.3719 17.6538 25.7898 17.461C26.2078 17.2682 26.6421 17.1616 27.101 17.1411C27.56 17.1206 27.9779 17.1985 28.3549 17.3708C28.7319 17.543 29.0351 17.8302 29.2686 18.228C29.5022 18.6259 29.6005 19.1386 29.5596 19.7703V27.2231C29.4776 27.8138 29.2645 28.2978 28.9203 28.6751C28.5721 29.0525 28.1377 29.3929 27.6091 29.6964H34.4438C33.7308 29.3519 33.2473 28.9991 32.9933 28.6423L32.9974 28.6382Z" fill="current"/>
<path d="M118.828 28.9295C118.554 28.667 118.304 28.2978 118.082 27.8302L118.009 15.2216L118.074 3.50293C114.452 4.93443 112.633 5.66454 112.608 5.68505C114.366 5.83681 115.112 6.49719 114.854 7.67028V9.17561C114.854 9.17561 114.854 9.17561 114.85 9.17561V16.6407C114.46 16.4398 113.928 16.247 113.256 16.1649C111.776 15.9845 109.625 16.0788 107.888 17.4201C104.802 19.8114 104.79 24.2002 105.901 26.5013C106.454 27.6498 107.761 28.9336 109.469 29.3684C112.063 30.0288 113.993 29.1797 114.85 28.4455V29.1674C115.46 29.2905 116.005 29.3848 116.484 29.4586C116.96 29.5284 117.398 29.5817 117.796 29.6104C118.193 29.6432 118.57 29.6596 118.927 29.6719C119.283 29.6801 119.644 29.6883 120.008 29.6883C119.5 29.4422 119.107 29.1879 118.832 28.9254L118.828 28.9295ZM111.756 28.3143C109.564 28.3143 108.191 26.772 108.076 23.0312C107.937 18.4496 110.162 16.8581 111.867 16.8581C113.469 16.8581 114.755 18.1748 114.755 19.0977L114.804 25.0001C114.804 27.5718 112.854 28.3101 111.756 28.3101V28.3143Z" fill="current"/>
<path d="M39.4264 27.1903H39.4551L39.4264 13.4742L39.3937 6.6612C39.619 5.2338 40.0738 4.0443 40.7663 3.0845C41.4588 2.12879 42.2947 1.41509 43.2699 0.947498C43.5363 0.721903 43.6674 0.508614 43.6674 0.307629C43.6674 0.106645 43.5363 0 43.2699 0C41.5612 0.467596 40.0861 1.38638 38.8446 2.74815C37.603 4.11403 36.7467 5.97621 36.2795 8.3388V27.1903C36.2795 30.4963 41.467 29.6965 41.467 29.6965C40.8565 29.4135 40.3935 29.0894 40.0779 28.7326C39.7624 28.3757 39.5453 27.863 39.4223 27.1903H39.4264Z" fill="current"/>
<path d="M47.9368 28.5478C47.5885 28.0884 47.4164 27.4936 47.4164 26.7594L47.4779 15.6396C44.081 16.985 42.3724 17.6659 42.3519 17.6864C43.9991 17.83 44.6998 18.4493 44.458 19.5486V26.7594C44.458 27.5757 44.2654 28.2114 43.8762 28.6708C43.491 29.1302 42.9706 29.4707 42.3191 29.6922H49.5512C48.8178 29.3845 48.2769 29.0031 47.9327 28.5478H47.9368Z" fill="current"/>
<path d="M72.7596 28.6423C72.5055 28.2854 72.358 27.822 72.3171 27.2518V18.8515C72.1532 17.8712 71.768 17.1 71.1575 16.5299C70.5469 15.9598 69.7848 15.6316 68.8669 15.5496C68.4408 15.4676 67.986 15.4758 67.5066 15.566C67.0272 15.6562 66.56 15.8367 66.1052 16.0992C65.6463 16.3658 65.2201 16.7063 64.8227 17.1206C64.4252 17.5389 64.1138 18.0229 63.8925 18.5726H63.8024C63.618 17.6784 63.2288 16.9688 62.6264 16.4479C62.0282 15.9311 61.2906 15.6275 60.4138 15.5455C59.9835 15.4635 59.5328 15.4717 59.0534 15.5619C58.574 15.6521 58.1069 15.8326 57.6479 16.0951C57.189 16.3617 56.7629 16.7022 56.3654 17.1165C55.9679 17.5348 55.6606 18.0188 55.4353 18.5685V15.6357C54.6813 16.3289 53.9438 16.8211 53.2226 17.1165C52.5014 17.4118 51.7844 17.6702 51.0714 17.8958C50.7477 17.9163 50.6166 17.9778 50.6903 18.0804C50.76 18.1829 50.9157 18.2896 51.1493 18.4003C51.3828 18.511 51.6328 18.6136 51.895 18.7079C52.1573 18.8023 52.3334 18.8474 52.4154 18.8474V27.2477C52.19 27.8384 51.895 28.3388 51.5303 28.7448C51.1657 29.1509 50.7887 29.4667 50.3994 29.6923H57.2341C56.1769 29.0607 55.5664 28.2362 55.4025 27.219V19.8892H55.4353V19.5529C55.4967 19.0648 55.6852 18.6423 56.0007 18.2854C56.3162 17.9286 56.6809 17.6538 57.0989 17.461C57.5168 17.2682 57.9552 17.1616 58.4101 17.1411C58.869 17.1206 59.2828 17.1985 59.6598 17.3708C60.0368 17.543 60.34 17.8302 60.5777 18.228C60.8112 18.6259 60.9096 19.1386 60.8686 19.7703V27.2231C60.7866 27.8138 60.5736 28.2978 60.2294 28.6751C59.8811 29.0525 59.4467 29.3929 58.9182 29.6964H65.7528C65.0399 29.3519 64.5563 28.9991 64.3023 28.6423C64.0483 28.2854 63.9007 27.822 63.8598 27.2518V19.8892H63.8885V19.5529C63.9499 19.0648 64.1384 18.6423 64.4539 18.2854C64.7694 17.9286 65.1341 17.6538 65.552 17.461C65.9659 17.2682 66.4043 17.1616 66.8633 17.1411C67.3222 17.1206 67.7401 17.1985 68.113 17.3708C68.49 17.543 68.7932 17.8302 69.0267 18.228C69.2603 18.6259 69.3586 19.1386 69.3177 19.7703V27.2231C69.2357 27.8138 69.0226 28.2978 68.6785 28.6751C68.3302 29.0525 67.8958 29.3929 67.3673 29.6964H74.2019C73.4889 29.3519 73.0054 28.9991 72.7514 28.6423H72.7596Z" fill="current"/>
<path d="M80.6475 28.5478C80.2992 28.0884 80.1271 27.4936 80.1271 26.7594L80.1886 15.6396C76.7917 16.985 75.0831 17.6659 75.0626 17.6864C76.7098 17.83 77.4104 18.4493 77.1687 19.5486V26.7594C77.1687 27.5757 76.9761 28.2114 76.5868 28.6708C76.2017 29.1302 75.6813 29.4707 75.0298 29.6922H82.2619C81.5285 29.3845 80.9876 29.0031 80.6434 28.5478H80.6475Z" fill="current"/>
<path d="M87.7813 28.503C87.5559 28.3184 87.4166 28.1133 87.3551 27.8918C87.2937 27.6662 87.265 27.5063 87.265 27.4037V16.1281H90.166C90.2275 16.1281 90.2889 16.0789 90.3504 15.9763V15.64H87.2691V11.8828L83.0896 16.1281H84.1263V27.2807C84.1468 27.6457 84.2451 27.9698 84.4172 28.2446C84.5893 28.5194 84.7942 28.7573 85.0277 28.9624C85.2613 29.1675 85.5112 29.3274 85.7735 29.4505C86.0357 29.5735 86.2816 29.6556 86.5069 29.6966C87.9697 29.6966 89.2523 29.2085 90.3504 28.2282C89.8218 28.4128 89.3629 28.5276 88.9777 28.5809C88.5926 28.6301 88.1951 28.6055 87.7895 28.5071L87.7813 28.503Z" fill="current"/>
<path d="M103.655 20.7177L103.614 20.5782C103.151 19.1467 102.332 18.0023 101.156 17.141C99.9796 16.2837 98.6111 15.853 97.0499 15.853C95.7674 15.853 94.6037 16.1689 93.5629 16.7964C92.5221 17.424 91.6944 18.273 91.0839 19.3395C90.4734 20.4059 90.1702 21.6036 90.1702 22.9367C90.1702 24.2698 90.4652 25.4511 91.0552 26.5175C91.6453 27.584 92.4689 28.433 93.526 29.0606C94.5832 29.6881 96.1607 30.004 97.1892 30.004C98.2177 30.004 99.0577 29.885 99.8034 29.643C100.549 29.401 101.184 29.0975 101.705 28.7283C102.225 28.3592 102.643 27.9736 102.95 27.5716C103.258 27.1697 103.479 26.7964 103.606 26.456V26.1237C103.172 26.7226 102.36 27.3953 101.295 27.9203C100.189 28.4658 98.8446 28.5561 97.8858 28.4822C96.718 28.392 95.3945 27.9777 94.5381 26.9687C94.03 26.3863 93.4441 25.2624 93.3048 24.0524L103.733 21.0499C103.712 20.9392 103.688 20.8284 103.651 20.7177H103.655ZM93.9317 19.0278C95.0503 16.8621 96.8573 16.6816 97.935 16.9646C99.0126 17.2476 99.7584 18.1008 100.221 18.9662C100.574 19.6225 100.783 20.3936 100.889 20.8817L93.2146 23.0967C93.2064 22.9572 93.1941 22.8219 93.1941 22.6783C93.1941 21.2755 93.3744 20.1065 93.9358 19.0278H93.9317Z" fill="current"/>
<path d="M44.1304 13.9788C44.3189 14.0526 44.9007 14.1634 45.1138 14.1183C45.9784 13.8886 47.1462 13.261 47.5354 12.8713C48.15 12.2561 48.4901 10.2873 48.4942 10.0576C48.4942 9.79915 48.1951 9.40539 48.1009 9.54074C46.802 11.3865 44.6672 10.9271 44.323 11.3783C44.1181 11.6572 43.8886 13.1257 44.1304 13.9788Z" fill="current"/>
<path d="M77.5005 14.1183C78.3651 13.8886 79.5329 13.261 79.9221 12.8713C80.5368 12.2561 80.8769 10.2873 80.881 10.0576C80.881 9.79915 80.5818 9.40539 80.4876 9.54074C79.1887 11.3865 77.0539 10.9271 76.7097 11.3783C76.5048 11.6572 76.2753 13.1257 76.5171 13.9788C76.7056 14.0526 77.2874 14.1634 77.5005 14.1183Z" fill="current"/>
<path d="M16.7466 28.638C16.4966 28.2894 16.3491 27.8341 16.3081 27.2762V13.1868C16.3245 13.1171 16.3327 13.0515 16.3327 12.994C16.3696 12.1081 16.6605 11.6159 17.0375 11.3C17.4595 10.9514 17.9963 10.6807 18.3815 10.4551H11.219C12.0631 10.7627 13.2719 11.542 13.2801 12.6946C13.2801 12.8259 13.2883 12.9489 13.2965 13.072V25.3812C13.2965 28.3222 11.6042 28.4411 11.3747 28.4452H9.26859C8.33436 28.4083 7.49027 28.2648 6.6093 27.7684C5.41692 27.0958 4.34747 25.5904 4.04835 23.8882C3.4747 20.6232 5.24483 18.6954 6.10121 15.3443C6.87154 12.3337 6.2733 10.4551 6.2733 10.4551H0C0 10.4551 1.41364 10.7709 1.92993 12.063C2.91743 14.5404 0.790822 16.9973 0.790822 21.3657C0.790822 26.6528 4.03196 29.6881 8.50236 29.6881H18.193C17.48 29.3435 16.9965 28.9908 16.7425 28.6339L16.7466 28.638Z" fill="current"/>
</g>
<defs>
<clipPath id="clip0_577_86993">
<rect width="120" height="30" fill="white"/>
</clipPath>
</defs>
</svg>
